<svg height="512" viewBox="0 0 60 60" width="512" xmlns="http://www.w3.org/2000/svg"><path d="m34 2v35.953c.0000857.6962559-.1815687 1.3804758-.527 1.985l-2.605 4.562c-.1781085.3113357-.5093183.5034358-.868.5034358s-.6898915-.1921001-.868-.5034358l-2.605-4.558c-.346105-.6057014-.5277827-1.2913882-.527-1.989v-35.953c0-.55228475.4477153-1 1-1h6c.5522847 0 1 .44771525 1 1z" fill="#e8edfc"></path><path d="m33 1h-3c.5522847 0 1 .44771525 1 1v35.953c-.0002374.6962137-.1818701 1.3803522-.527 1.985l-1.973 3.453.632 1.105c.1781085.3113357.5093183.5034358.868.5034358s.6898915-.1921001.868-.5034358l2.605-4.558c.3451299-.6046478.5267626-1.2887863.527-1.985v-35.953c0-.55228475-.4477153-1-1-1z" fill="#cad9fc"></path><path d="m59 10v15.24c-9.33-.13-9.44-5.99-19-5.99h-1v-9.25c0-.55228475.4477153-1 1-1h18c.5522847 0 1 .44771525 1 1z" fill="#e8edfc"></path><path d="m58 9h-3c.5522847 0 1 .44771525 1 1v14.96c.9904645.1766642 1.9939501.2703228 3 .28v-15.24c0-.55228475-.4477153-1-1-1z" fill="#cad9fc"></path><path d="m59 25.24v19.75c-9.9-.14-9.42-6.7-20.82-5.92.85-3.66.82-7.45.82-11.61v-8.21h1c9.56 0 9.67 5.86 19 5.99z" fill="#e8edfc"></path><path d="m56 25.24v19.47c.9904645.1766642 1.9939501.2703228 3 .28v-19.75z" fill="#cad9fc"></path><path d="m59 44.99v13.01c0 .5522847-.4477153 1-1 1h-56c-.55228475 0-1-.4477153-1-1v-19c9.67 0 9.67 6 19.33 6 1.2255175.0103504 2.4487813-.1069488 3.65-.35.28.51.6 1.02.94 1.53 1.39 2.06 2.48 2.83 5.08 2.82 2.6.01 3.69-.76 5.08-2.82 1.4610006-2.1596236 2.5118541-4.5698069 3.1-7.11 11.4-.78 10.92 5.78 20.82 5.92z" fill="#a4c2f7"></path><path d="m21.92 46.18c1.39 2.06 2.48 2.83 5.08 2.82.5025517.0052435 1.0045614-.0345826 1.5-.119-1.582-.278-2.494-1.092-3.58-2.7-.34-.51-.66-1.02-.94-1.53-.9247409.1886218-1.8637272.2990121-2.807.33.233.399.48.799.747 1.199z" fill="#7facfa"></path><path d="m56 44.99v13.01c0 .5522847-.4477153 1-1 1h3c.5522847 0 1-.4477153 1-1v-13.01z" fill="#7facfa"></path><path d="m23.98 44.65c-1.2012187.2430512-2.4244825.3603504-3.65.35-9.66 0-9.66-6-19.33-6v-19.75h1c9.56 0 9.67 5.86 19 5.99v2.22c0 6.29-.08 11.74 2.98 17.19z" fill="#e8edfc"></path><path d="m18 25.24v2.22c0 6.29-.08 11.74 2.98 17.19-.70838.1447495-1.4256469.2419663-2.147.291.475.034.966.059 1.5.059 1.2255175.0103504 2.4487813-.1069488 3.65-.35-3.063-5.45-2.983-10.9-2.983-17.19v-2.22z" fill="#cad9fc"></path><path d="m21 10v15.24c-9.33-.13-9.44-5.99-19-5.99h-1v-9.25c0-.55228475.44771525-1 1-1h18c.5522847 0 1 .44771525 1 1z" fill="#e8edfc"></path><path d="m20 9h-3c.5522847 0 1 .44771525 1 1v14.96c.9904645.1766642 1.9939501.2703228 3 .28v-15.24c0-.55228475-.4477153-1-1-1z" fill="#cad9fc"></path><path d="m2 59h3c-.55228475 0-1-.4477153-1-1v-48c0-.55228475.44771525-1 1-1h-3c-.55228475 0-1 .44771525-1 1v48c0 .5522847.44771525 1 1 1z" fill="#fff"></path><path id="Rectangle-path" d="m0 50h2v8h-2z" fill="#fff"></path><g fill="#428dff"><path d="m1.02 55c-.55228473.0027614-1.00223852-.4427153-1.00499994-.995-.00276143-.5522847.44271521-1.0022385.99499994-1.005h.01c.55228475 0 1 .4477153 1 1s-.44771525 1-1 1z"></path><path d="m58 8h-18c-1.1045695 0-2 .8954305-2 2v17.9c0 6.514 0 12.14-3.749 17.718-1.201 1.782-1.982 2.382-4.208 2.382h-.094c-2.218 0-3-.6-4.2-2.378-3.749-5.579-3.749-11.205-3.749-17.722v-17.9c0-1.1045695-.8954305-2-2-2h-18c-1.1045695 0-2 .8954305-2 2v40c0 .5522847.44771525 1 1 1s1-.4477153 1-1v-9.961c2.92030148.1278109 5.74072976 1.1004921 8.119 2.8l.019.012c2.9687263 2.1215548 6.5439356 3.2261795 10.192 3.149 1.0480236-.0019276 2.0941491-.0892162 3.128-.261.2.333.408.667.633 1 1.458 2.161 2.768 3.261 5.856 3.261h.053c3.122-.006 4.447-1.088 5.914-3.262 1.388963-2.0475904 2.4227838-4.3146939 3.058-6.706 3.6150001-.2959523 7.217486.7028479 10.164 2.818 2.6069178 1.8394818 5.6783937 2.9091621 8.864 3.087v12.063h-56c-.0189787-.5483878-.47232014-.9813044-1.021-.975-.53845146.0016313-.9751642.4365597-.979.975 0 1.1045695.8954305 2 2 2h56c1.1045695 0 2-.8954305 2-2v-48c0-1.1045695-.8954305-2-2-2zm-56 2h18v14.187c-2.8084303-.1863119-5.5094136-1.151394-7.8-2.787-2.971615-2.1219353-6.54935583-3.2268259-10.2-3.15zm0 10.25c1.648694-.0268924 3.2909875.2114833 4.864.706l-4.864 6.659zm0 10.757 6.771-9.271c.832.417 1.6.883 2.373 1.363l.115.071-9.259 12.659zm.835 7.068 10.151-13.875c.846991.470219 1.7341589.8641069 2.651 1.177l-9.681 13.252c-1.02011037-.284544-2.06527937-.470069-3.121-.554zm5.082 1.262 9.792-13.409c.7575049.1341174 1.5226719.2206203 2.291.259v1.437l-9.55 13.067c-.81352129-.5067488-1.65970576-.9590716-2.533-1.354zm4.243 2.4 7.856-10.749c.022 1.542.08 3.044.224 4.517l-5.5 7.531c-.8947712-.3589974-1.7578053-.7925215-2.58-1.296zm8.17 2.263c-1.1941164.0082037-2.3856467-.1121563-3.554-.359l3.871-5.3c.3613048 1.9132329.9686819 3.7716657 1.807 5.529-.7048821.0844619-1.4140788.1278684-2.124.13zm19.67-23.75c1.0675646-.0061608 2.1334192.0862312 3.184.276l-3.184 4.359zm0 8.027 5.256-7.2c.9064148.3339562 1.7798362.7514175 2.609 1.247l-7.945 10.888c.073-1.599.08-3.239.08-4.935zm-.586 9.737c.055-.306.106-.614.151-.923l10.016-13.724c.8117085.5137856 1.6528157.9795833 2.519 1.395l-9.77 13.365c-.9684649-.1016461-1.9425733-.1393945-2.916-.113zm5.1.506 9.517-13.02c.9984192.3074886 2.0247128.5158289 3.064.622l-9.789 13.4c-.8942095-.4263223-1.8288755-.7619981-2.79-1.002zm13.486 5.417c-1.605192-.0833546-3.1836824-.4450708-4.665-1.069l4.665-6.384zm0-10.844-6.474 8.861c-.451-.261-.893-.529-1.337-.8-.363-.225-.729-.451-1.1-.674l8.911-12.204zm0-8.906c-2.8084303-.1863119-5.5094136-1.151394-7.8-2.787-2.971615-2.1219353-6.5493558-3.2268259-10.2-3.15v-8.25h18z"></path><path d="m24.553 38.1c-.4420206.2638535-.6115104.8201704-.3916951 1.2856616s.7571075.6880499 1.2416951.5143384c.0748086.179615.1602946.3545941.256.524l2.605 4.558c.356217.6226715 1.0186365 1.0068716 1.736 1.0068716s1.379783-.3842001 1.736-1.0068716l2.605-4.558c.4298142-.7527539.6568845-1.6041816.659-2.471v-2.835l.447-.223c.4170042-.2039126.6370994-.669515.5299937-1.1211799-.1071057-.451665-.5128305-.7688633-.9769937-.7638201v-3.892l.447-.223c.4170042-.2039126.6370994-.669515.5299937-1.1211799-.1071057-.451665-.5128305-.7688633-.9769937-.7638201v-3.892l.447-.223c.4170042-.2039126.6370994-.669515.5299937-1.1211799-.1071057-.451665-.5128305-.7688633-.9769937-.7638201v-3.892l.447-.223c.4170042-.2039126.6370994-.669515.5299937-1.1211799-.1071057-.451665-.5128305-.7688633-.9769937-.7638201v-3.892l.447-.223c.4170042-.2039126.6370994-.669515.5299937-1.12117994-.1071057-.45166496-.5128305-.7688633-.9769937-.76382006v-3.892l.447-.223c.4162514-.20463105.6356456-.66994525.5286766-1.12127303-.106969-.45132777-.5118625-.76867984-.9756766-.76472697v-1.009c0-1.1045695-.8954305-2-2-2h-6c-1.1045695 0-2 .8954305-2 2v5.882l-.447.223c-.415452.20705992-.6337945.67279068-.5272238 1.12458366.1065707.45179297.510032.77085024.9742238.77041634v3.882l-.447.223c-.415452.2070599-.6337945.6727907-.5272238 1.1245837.1065707.4517929.510032.7708502.9742238.7704163v3.882l-.447.223c-.415452.2070599-.6337945.6727907-.5272238 1.1245837.1065707.4517929.510032.7708502.9742238.7704163v3.882l-.447.223c-.415452.2070599-.6337945.6727907-.5272238 1.1245837.1065707.4517929.510032.7708502.9742238.7704163v3.882l-.447.223c-.415452.2070599-.6337945.6727907-.5272238 1.1245837.1065707.4517929.510032.7708502.9742238.7704163v3.882zm8.447-.147c-.0018915.522631-.1397411 1.035776-.4 1.489l-2.6 4.558-2.6-4.558c-.0705082-.1393569-.1296989-.2841566-.177-.433l5.777-2.891zm-6-35.953h6v1.882l-6 3zm0 7.118 6-3v3.764l-6 3zm0 6 6-3v3.764l-6 3zm0 6 6-3v3.764l-6 3zm0 6 6-3v3.764l-6 3zm0 6 6-3v3.764l-6 3z"></path><circle id="Oval" cx="5" cy="13" r="1"></circle><circle id="Oval" cx="8" cy="16" r="1"></circle><circle id="Oval" cx="11" cy="13" r="1"></circle><circle id="Oval" cx="14" cy="16" r="1"></circle><circle id="Oval" cx="17" cy="19" r="1"></circle><circle id="Oval" cx="17" cy="13" r="1"></circle><circle id="Oval" cx="43" cy="13" r="1"></circle><circle id="Oval" cx="46" cy="16" r="1"></circle><circle id="Oval" cx="49" cy="13" r="1"></circle><circle id="Oval" cx="52" cy="16" r="1"></circle><circle id="Oval" cx="55" cy="19" r="1"></circle><circle id="Oval" cx="55" cy="13" r="1"></circle><path d="m5 56h4c.55228475 0 1-.4477153 1-1s-.44771525-1-1-1h-4c-.55228475 0-1 .4477153-1 1s.44771525 1 1 1z"></path><path d="m15 51h-4c-.5522847 0-1 .4477153-1 1s.4477153 1 1 1h4c.5522847 0 1-.4477153 1-1s-.4477153-1-1-1z"></path><path d="m17 56h4c.5522847 0 1-.4477153 1-1s-.4477153-1-1-1h-4c-.5522847 0-1 .4477153-1 1s.4477153 1 1 1z"></path><path d="m27 51h-4c-.5522847 0-1 .4477153-1 1s.4477153 1 1 1h4c.5522847 0 1-.4477153 1-1s-.4477153-1-1-1z"></path><path d="m27 55c0 .5522847.4477153 1 1 1h4c.5522847 0 1-.4477153 1-1s-.4477153-1-1-1h-4c-.5522847 0-1 .4477153-1 1z"></path><path d="m38 51h-4c-.5522847 0-1 .4477153-1 1s.4477153 1 1 1h4c.5522847 0 1-.4477153 1-1s-.4477153-1-1-1z"></path><path d="m40 56h4c.5522847 0 1-.4477153 1-1s-.4477153-1-1-1h-4c-.5522847 0-1 .4477153-1 1s.4477153 1 1 1z"></path><path d="m46 51c-.5522847 0-1 .4477153-1 1s.4477153 1 1 1h4c.5522847 0 1-.4477153 1-1s-.4477153-1-1-1z"></path><path d="m55 54h-4c-.5522847 0-1 .4477153-1 1s.4477153 1 1 1h4c.5522847 0 1-.4477153 1-1s-.4477153-1-1-1z"></path><path d="m9 48h-4c-.55228475 0-1 .4477153-1 1s.44771525 1 1 1h4c.55228475 0 1-.4477153 1-1s-.44771525-1-1-1z"></path><path d="m21 48h-4c-.5522847 0-1 .4477153-1 1s.4477153 1 1 1h4c.5522847 0 1-.4477153 1-1s-.4477153-1-1-1z"></path><path d="m44 48h-4c-.5522847 0-1 .4477153-1 1s.4477153 1 1 1h4c.5522847 0 1-.4477153 1-1s-.4477153-1-1-1z"></path><path d="m55 48h-4c-.5522847 0-1 .4477153-1 1s.4477153 1 1 1h4c.5522847 0 1-.4477153 1-1s-.4477153-1-1-1z"></path></g></svg>


